<svg width="78" height="78" viewBox="0 0 78 78" fill="none" xmlns="http://www.w3.org/2000/svg">
<path fill-rule="evenodd" clip-rule="evenodd" d="M28.1901 49.2015L40.0219 39.1874C40.2539 38.991 40.3983 38.7106 40.4235 38.4078C40.4487 38.1049 40.3526 37.8045 40.1563 37.5725C39.9599 37.3405 39.6795 37.1961 39.3767 37.1709C39.0738 37.1457 38.7734 37.2418 38.5414 37.4381L26.6746 47.4819C27.121 48.1043 27.6287 48.6804 28.1901 49.2015Z" fill="#7000FF"/>
<path d="M53.1071 25.5604C52.0272 24.2846 50.4849 23.49 48.8192 23.3514C47.1535 23.2128 45.501 23.7416 44.2252 24.8214C43.0183 25.843 42.8678 27.6516 43.8893 28.8586L49.0711 34.9809C50.0927 36.1879 51.9013 36.3384 53.1083 35.3168C54.3841 34.237 55.1787 32.6946 55.3173 31.029C55.4559 29.3633 54.9271 27.7108 53.8473 26.435L53.1071 25.5604Z" fill="#7000FF"/>
<path opacity="0.5" d="M39.6184 19.8038C39.6397 19.359 39.4875 18.9233 39.1938 18.5885C38.9001 18.2537 38.488 18.0459 38.0442 18.009C37.6004 17.9721 37.1595 18.1089 36.8146 18.3905C36.4696 18.6722 36.2475 19.0768 36.1949 19.519L35.4903 27.9874C34.1044 28.1437 32.7831 28.6586 31.657 29.4815L28.2385 25.4425C27.944 25.0946 27.5233 24.8778 27.0691 24.8401C26.6148 24.8023 26.1641 24.9465 25.8162 25.241C25.4682 25.5354 25.2515 25.9561 25.2137 26.4104C25.1759 26.8646 25.3201 27.3153 25.6146 27.6633L29.0198 31.6865L28.5825 32.0566C27.1411 33.2766 26.0763 34.7783 25.4007 36.4099L17.0583 35.7158C16.6135 35.6945 16.1777 35.8468 15.8429 36.1404C15.5081 36.4341 15.3004 36.8462 15.2635 37.2901C15.2265 37.7339 15.3633 38.1747 15.645 38.5196C15.9267 38.8646 16.3312 39.0867 16.7734 39.1393L24.5715 39.7898C24.3248 42.5233 25.0715 45.2542 26.6747 47.482L38.5415 37.4382C38.7734 37.2419 39.0739 37.1457 39.3767 37.1709C39.6796 37.1961 39.96 37.3406 40.1563 37.5726C40.3527 37.8045 40.4488 38.105 40.4236 38.4078C40.3984 38.7107 40.254 38.9911 40.022 39.1874L28.1902 49.2016C30.097 50.9722 32.5496 52.041 35.1447 52.2323L34.4922 60.0741C34.471 60.519 34.6232 60.9547 34.9169 61.2895C35.2105 61.6243 35.6227 61.8321 36.0665 61.869C36.5103 61.9059 36.9511 61.7691 37.2961 61.4875C37.641 61.2058 37.8632 60.8012 37.9157 60.359L38.6179 51.9587C40.3196 51.5572 41.9602 50.7571 43.3876 49.549L43.8249 49.1789L47.3781 53.377C47.6726 53.725 48.0933 53.9417 48.5476 53.9795C49.0018 54.0173 49.4525 53.873 49.8005 53.5786C50.1484 53.2841 50.3651 52.8634 50.4029 52.4091C50.4407 51.9549 50.2965 51.5042 50.002 51.1562L46.4355 46.9423C47.4211 45.9794 48.142 44.7788 48.5288 43.4563L57.0538 44.1639C57.283 44.1912 57.5154 44.172 57.737 44.1075C57.9586 44.043 58.165 43.9345 58.3438 43.7885C58.5225 43.6425 58.6701 43.462 58.7776 43.2578C58.8851 43.0536 58.9504 42.8297 58.9695 42.5997C58.9887 42.3697 58.9613 42.1382 58.889 41.919C58.8167 41.6998 58.701 41.4974 58.5488 41.3239C58.3966 41.1503 58.211 41.0092 58.0031 40.909C57.7952 40.8088 57.5692 40.7514 57.3387 40.7404L48.7655 40.0255C48.5451 38.5489 47.9171 37.1631 46.952 36.0241L42.5105 30.7764C41.52 29.6062 40.2658 28.7912 38.9097 28.3418L39.6184 19.8038Z" fill="#7000FF"/>
</svg>
