<svg width="26" height="26" viewBox="0 0 36 36" fill="none" xmlns="http://www.w3.org/2000/svg">
<path d="M19.1115 31.3755C18.4111 31.375 17.7117 31.3224 17.019 31.218C13.9858 30.7383 11.2014 29.2543 9.11202 27.0037C7.02264 24.7531 5.74927 21.8663 5.49596 18.8058C5.24265 15.7453 6.02407 12.6884 7.71499 10.1249C9.40592 7.56147 11.9084 5.63984 14.8215 4.668C15.1334 4.56255 15.4684 4.54613 15.789 4.62059C16.1096 4.69505 16.4031 4.85743 16.6365 5.0895C16.8896 5.33583 17.0692 5.64765 17.1553 5.99014C17.2414 6.33262 17.2305 6.6923 17.124 7.029C16.7236 8.32988 16.5446 9.6888 16.5945 11.049C16.7081 13.1822 17.3707 15.25 18.5181 17.0519C19.6654 18.8539 21.2587 20.3291 23.1435 21.3345C24.8409 22.2995 26.7576 22.8124 28.71 22.824C29.05 22.8287 29.3822 22.9264 29.6706 23.1064C29.959 23.2864 30.1927 23.5419 30.3463 23.8452C30.4999 24.1485 30.5675 24.4881 30.5419 24.8271C30.5163 25.1661 30.3985 25.4917 30.201 25.7685C28.9239 27.5095 27.2541 28.9246 25.3272 29.8989C23.4003 30.8732 21.2707 31.3791 19.1115 31.3755ZM15.3915 6.075C15.3584 6.07507 15.3254 6.08065 15.294 6.0915C13.4705 6.69665 11.8156 7.72375 10.4639 9.08923C9.11226 10.4547 8.10206 12.12 7.5155 13.9496C6.92895 15.7792 6.78261 17.7215 7.08839 19.6183C7.39417 21.5152 8.14344 23.313 9.27523 24.8656C10.407 26.4182 11.8894 27.6817 13.6016 28.5533C15.3139 29.4248 17.2078 29.8798 19.1291 29.8813C21.0504 29.8827 22.945 29.4306 24.6586 28.5616C26.3722 27.6926 27.8564 26.4314 28.9905 24.8805C29.0268 24.8296 29.0479 24.7695 29.0514 24.7071C29.0549 24.6447 29.0405 24.5826 29.01 24.528C28.9833 24.4681 28.94 24.4172 28.8852 24.381C28.8305 24.3449 28.7666 24.3251 28.701 24.324C26.4985 24.3115 24.3358 23.7352 22.419 22.65C20.3064 21.5191 18.5219 19.8614 17.2386 17.8378C15.9553 15.8141 15.2167 13.4931 15.0945 11.1C15.0406 9.57302 15.2434 8.04782 15.6945 6.588C15.7168 6.51397 15.719 6.43534 15.7008 6.36021C15.6826 6.28507 15.6447 6.21613 15.591 6.1605C15.5655 6.13322 15.5346 6.11154 15.5003 6.09682C15.4659 6.0821 15.4289 6.07467 15.3915 6.075Z" fill="white"/>
</svg>
