<svg width="26" height="26" viewBox="0 0 36 36" fill="none" xmlns="http://www.w3.org/2000/svg">
<path fill-rule="evenodd" clip-rule="evenodd" d="M19.5 28.5V34.5H16.5V28.5H19.5ZM26.4853 24.3639L30.7279 28.6066L28.6066 30.7279L24.3639 26.4852L26.4853 24.3639ZM9.51471 24.3639L11.636 26.4852L7.39338 30.7279L5.27205 28.6066L9.51471 24.3639ZM18 9.79826C22.5297 9.79826 26.2018 13.4703 26.2018 18C26.2018 22.5297 22.5297 26.2017 18 26.2017C16.9224 26.2038 15.8549 25.993 14.8589 25.5816C13.8629 25.1701 12.9579 24.5661 12.1959 23.8041C11.4339 23.0421 10.8298 22.1371 10.4184 21.1411C10.0069 20.1451 9.79617 19.0776 9.79821 18C9.79821 13.4703 13.4703 9.79826 18 9.79826ZM18 12.7982C15.1271 12.7982 12.7982 15.1272 12.7982 18.0057C12.7969 18.6884 12.9304 19.3647 13.1911 19.9957C13.4518 20.6267 13.8344 21.2 14.3172 21.6828C15.2922 22.6578 16.6154 23.2043 18 23.2017V12.7982ZM34.5 16.5V19.5H28.5V16.5H34.5ZM7.49998 16.5V19.5H1.5V16.5H7.49998ZM7.39338 5.27203L11.636 9.51469L9.51471 11.636L5.27205 7.39336L7.39338 5.27203ZM28.6067 5.27203L30.7279 7.39336L26.4853 11.636L24.3639 9.51469L28.6067 5.27203ZM19.4999 1.49998V7.49995H16.4999V1.49998H19.4999Z" fill="#FFC400"/>
</svg>
